<svg xmlns="http://www.w3.org/2000/svg" xmlns:xlink="http://www.w3.org/1999/xlink" version="1.1" width="400" height="400" style="shape-rendering: geometricprecision; text-rendering: geometricprecision; fill-rule: evenodd; clip-rule: evenodd;"><rect id="backgroundrect" width="100%" height="100%" x="0" y="0" fill="none" stroke="none" style="" class=""/>


























<g class="currentLayer" style=""><title>Layer 1</title><g id="svg_41" class="" fill-opacity="1" fill="#f5bfab"><path style="opacity:1" fill="#f5bfab" d="M208.59093916416168,376.5000305175781 C217.95693916416167,354.2200305175779 218.78993916416164,331.5500305175783 211.09093916416168,308.5000305175781 C206.20493916416171,297.06003051757807 200.53893916416166,286.06003051757807 194.09093916416168,275.5000305175781 C172.91593916416173,246.65003051757822 152.91593916416173,216.9900305175779 134.09093916416168,186.50003051757812 C122.73993916416168,165.60003051757803 114.90593916416174,143.60003051757803 110.59093916416168,120.50003051757812 C108.80493916416174,85.76003051757834 120.97193916416165,57.09003051757827 147.09093916416168,34.500030517578125 C144.46593916416168,44.34003051757827 142.13193916416174,54.34003051757827 140.09093916416168,64.50003051757812 C138.2349391641617,81.87003051757802 139.90193916416172,98.87003051757802 145.09093916416168,115.50003051757812 C150.36993916416168,128.72003051757792 156.70293916416165,141.390030517578 164.09093916416168,153.50003051757812 C183.58793916416164,181.8200305175783 202.58793916416164,210.4900305175779 221.09093916416168,239.50003051757812 C231.2629391641617,257.35003051757803 238.2629391641617,276.35003051757803 242.09093916416168,296.5000305175781 C247.07893916416174,332.5500305175783 235.41293916416168,361.88003051757823 207.09093916416168,384.5000305175781 C206.6579391641617,381.58003051757805 207.1579391641617,378.910030517578 208.59093916416168,376.5000305175781 z" id="svg_42"/></g><g id="svg_43" class="" fill-opacity="1" fill="#bf6155"><path style="opacity:1" fill="#bf6155" d="M110.59093916416168,120.50003051757812 C114.90593916416174,143.60003051757803 122.73993916416168,165.60003051757803 134.09093916416168,186.50003051757812 C152.91593916416173,216.9900305175779 172.91593916416173,246.65003051757822 194.09093916416168,275.5000305175781 C200.53893916416166,286.06003051757807 206.20493916416171,297.06003051757807 211.09093916416168,308.5000305175781 C218.78993916416164,331.5500305175783 217.95693916416167,354.2200305175779 208.59093916416168,376.5000305175781 C213.67793916416167,354.98003051757814 210.84393916416172,334.6500305175782 200.09093916416168,315.5000305175781 C193.47593916416167,305.88003051757823 186.47593916416167,296.5500305175783 179.09093916416168,287.5000305175781 C157.16293916416168,265.58003051757805 137.49593916416165,241.9200305175782 120.09093916416168,216.50003051757812 C104.99493916416168,193.25003051757812 99.32893916416174,167.9200305175782 103.09093916416168,140.50003051757812 C104.76693916416173,133.4900305175779 107.26693916416173,126.82003051757829 110.59093916416168,120.50003051757812 z" id="svg_44"/></g><rect fill="" stroke-dashoffset="" fill-rule="nonzero" id="svg_61" x="47" y="145" width="1" height="0" style="color: rgb(0, 0, 0);"/><path fill="#394048" stroke-dashoffset="" fill-rule="nonzero" marker-start="" marker-mid="" marker-end="" id="svg_63" d="M48.973182996201544,299.90868232905416 L96.24590930781433,221.27232615606349 L143.518635619427,299.90868232905416 L48.973182996201544,299.90868232905416 z" style="color: rgb(0, 0, 0);" class="selected" fill-opacity="1"/><path fill="#394048" fill-opacity="1" stroke="#000000" stroke-opacity="1" stroke-width="1" stroke-dasharray="none" stroke-linejoin="miter" stroke-linecap="butt" stroke-dashoffset="" fill-rule="nonzero" opacity="1" marker-start="" marker-mid="" marker-end="" id="svg_73" d="M162.48484675598547,89.69696840569998 L201.5757594921372,20.606061285192318 L359.7575776739554,300.6060612851923 L280.66666858304626,301.5151521942832 L162.48484675598547,89.69696840569998 z" style="color: rgb(0, 0, 0);" class=""/></g></svg>